<svg width="24" height="25" viewBox="0 0 24 25" fill="none" xmlns="http://www.w3.org/2000/svg">
<path d="M11.7167 24.0115C11.5111 24.0115 11.3184 23.9796 11.1385 23.9159C10.9587 23.8522 10.7917 23.7427 10.6375 23.5875L0.4625 13.4125C0.154166 13.1042 0 12.7383 0 12.3148C0 11.8914 0.154166 11.525 0.4625 11.2156C0.770833 10.9073 1.13056 10.7531 1.54167 10.7531C1.95278 10.7531 2.3125 10.9073 2.62083 11.2156L10.175 18.7698V1.50312C10.175 1.06632 10.323 0.706597 10.619 0.423958C10.915 0.14132 11.2809 0 11.7167 0C12.1535 0 12.5199 0.148 12.8159 0.444C13.1119 0.74 13.2594 1.10589 13.2583 1.54167V18.7698L20.8125 11.2156C21.1208 10.9073 21.4806 10.7531 21.8917 10.7531C22.3028 10.7531 22.6625 10.9073 22.9708 11.2156C23.2792 11.524 23.4333 11.8904 23.4333 12.3148C23.4333 12.7393 23.2792 13.1052 22.9708 13.4125L12.7958 23.5875C12.6417 23.7417 12.4747 23.8511 12.2948 23.9159C12.1149 23.9806 11.9222 24.0125 11.7167 24.0115Z" fill="#9747FF"/>
</svg>
