<svg width="83" height="83" viewBox="0 0 83 83" fill="none" xmlns="http://www.w3.org/2000/svg">
<path d="M0 0H63C74.0457 0 83 8.95431 83 20V83H20C8.95431 83 0 74.0457 0 63V0Z" fill="#FFB800" fill-opacity="0.11"/>
<g clip-path="url(#clip0_117_2)">
<path d="M42.5 64.5H39.5C37.8425 64.5 36.5 63.1575 36.5 61.5V58.5H45.5V61.5C45.5 63.1575 44.1575 64.5 42.5 64.5Z" stroke="url(#paint0_linear_117_2)" stroke-width="3.125" stroke-miterlimit="10" stroke-linejoin="round"/>
<path d="M51.5 42C51.5 45.777 49.721 49.3335 46.7 51.6L45.5 52.5V58.5H36.5V52.5L35.3 51.6C32.279 49.3335 30.5 45.777 30.5 42C30.5 36.201 35.201 31.5 41 31.5C46.799 31.5 51.5 36.201 51.5 42Z" stroke="url(#paint1_linear_117_2)" stroke-width="3.125" stroke-miterlimit="10" stroke-linejoin="round"/>
<path d="M41 27V21" stroke="url(#paint2_linear_117_2)" stroke-width="3.125" stroke-miterlimit="10" stroke-linejoin="round"/>
<path d="M30.395 31.3934L26.1515 27.1499" stroke="url(#paint3_linear_117_2)" stroke-width="3.125" stroke-miterlimit="10" stroke-linejoin="round"/>
<path d="M51.605 31.3934L55.8485 27.1499" stroke="url(#paint4_linear_117_2)" stroke-width="3.125" stroke-miterlimit="10" stroke-linejoin="round"/>
<path d="M26 42H20" stroke="url(#paint5_linear_117_2)" stroke-width="3.125" stroke-miterlimit="10" stroke-linejoin="round"/>
<path d="M56 42H62" stroke="url(#paint6_linear_117_2)" stroke-width="3.125" stroke-miterlimit="10" stroke-linejoin="round"/>
</g>
<defs>
<linearGradient id="paint0_linear_117_2" x1="41" y1="58.5" x2="41" y2="64.5" gradientUnits="userSpaceOnUse">
<stop stop-color="#FF8A00"/>
<stop offset="1" stop-color="#FFDC83"/>
</linearGradient>
<linearGradient id="paint1_linear_117_2" x1="41" y1="31.5" x2="41" y2="58.5" gradientUnits="userSpaceOnUse">
<stop stop-color="#FF8A00"/>
<stop offset="1" stop-color="#FFDC83"/>
</linearGradient>
<linearGradient id="paint2_linear_117_2" x1="41.5" y1="21" x2="41.5" y2="27" gradientUnits="userSpaceOnUse">
<stop stop-color="#FF8A00"/>
<stop offset="1" stop-color="#FFDC83"/>
</linearGradient>
<linearGradient id="paint3_linear_117_2" x1="28.2733" y1="27.1499" x2="28.2733" y2="31.3934" gradientUnits="userSpaceOnUse">
<stop stop-color="#FF8A00"/>
<stop offset="1" stop-color="#FFDC83"/>
</linearGradient>
<linearGradient id="paint4_linear_117_2" x1="53.7267" y1="27.1499" x2="53.7267" y2="31.3934" gradientUnits="userSpaceOnUse">
<stop stop-color="#FF8A00"/>
<stop offset="1" stop-color="#FFDC83"/>
</linearGradient>
<linearGradient id="paint5_linear_117_2" x1="23" y1="42" x2="23" y2="43" gradientUnits="userSpaceOnUse">
<stop stop-color="#FF8A00"/>
<stop offset="1" stop-color="#FFDC83"/>
</linearGradient>
<linearGradient id="paint6_linear_117_2" x1="59" y1="42" x2="59" y2="43" gradientUnits="userSpaceOnUse">
<stop stop-color="#FF8A00"/>
<stop offset="1" stop-color="#FFDC83"/>
</linearGradient>
<clipPath id="clip0_117_2">
<rect width="48" height="48" fill="white" transform="translate(17 18)"/>
</clipPath>
</defs>
</svg>
