<svg width="40" height="40" viewBox="0 0 40 40" fill="none" xmlns="http://www.w3.org/2000/svg">
<path fill-rule="evenodd" clip-rule="evenodd" d="M40 0C39.1102 12.1179 35.9523 20.8898 30.5263 26.3158C29.564 27.2781 28.5104 28.1577 27.3654 28.9548L27.3654 33.6745L21.0496 39.9903L17.1955 33.2458L6.76234 22.8115L0 18.9474L6.31579 12.6316L11.0605 12.6316C11.8504 11.4856 12.725 10.4329 13.6842 9.47368C19.1102 4.04773 27.8821 0.889838 40 0ZM13.4536 32.537L16.4309 35.5142L11.965 39.9802L8.98767 37.0029L13.4536 32.537ZM8.98767 28.071L11.965 31.0483L4.52173 38.4915L1.54444 35.5142L8.98767 28.071ZM4.52173 23.6051L7.49903 26.5824L3.03309 31.0483L0.0557973 28.071L4.52173 23.6051ZM24.2105 12.6316C22.4665 12.6316 21.0526 14.0454 21.0526 15.7895C21.0526 17.5335 22.4665 18.9474 24.2105 18.9474C25.9546 18.9474 27.3684 17.5335 27.3684 15.7895C27.3684 14.0454 25.9546 12.6316 24.2105 12.6316Z" fill="#FFB800"/>
</svg>
