<svg width="39" height="39" viewBox="0 0 39 39" fill="none" xmlns="http://www.w3.org/2000/svg">
<path d="M25.1875 22.75H23.9038L23.4488 22.3113C25.0963 20.4003 26.0018 17.9606 26 15.4375C26 13.3484 25.3805 11.3063 24.2199 9.56929C23.0593 7.8323 21.4096 6.47848 19.4796 5.67903C17.5496 4.87958 15.4258 4.6704 13.3769 5.07796C11.3279 5.48552 9.44588 6.4915 7.96869 7.96869C6.4915 9.44588 5.48552 11.3279 5.07796 13.3769C4.6704 15.4258 4.87958 17.5496 5.67903 19.4796C6.47848 21.4096 7.8323 23.0593 9.56929 24.2199C11.3063 25.3805 13.3484 26 15.4375 26C18.0538 26 20.4588 25.0413 22.3113 23.4488L22.75 23.9038V25.1875L30.875 33.2963L33.2963 30.875L25.1875 22.75ZM15.4375 22.75C11.3913 22.75 8.12501 19.4838 8.12501 15.4375C8.12501 11.3913 11.3913 8.12501 15.4375 8.12501C19.4838 8.12501 22.75 11.3913 22.75 15.4375C22.75 19.4838 19.4838 22.75 15.4375 22.75Z" fill="white"/>
</svg>
